<?xml version="1.0" standalone="no"?>
<!DOCTYPE svg PUBLIC "-//W3C//DTD SVG 1.1//EN" "http://www.w3.org/Graphics/SVG/1.1/DTD/svg11.dtd">
<svg xmlns="http://www.w3.org/2000/svg" xmlns:xlink="http://www.w3.org/1999/xlink" width="327" zoomAndPan="magnify" viewBox="0 0 327 326.999992" height="327" preserveAspectRatio="xMidYMid meet" version="1.0"><defs><clipPath id="be4a13f6d9"><path d="M 0 0 L 326.867188 0 L 326.867188 326.867188 L 0 326.867188 Z M 0 0 " clip-rule="nonzero"/></clipPath><clipPath id="70b5489b7d"><path d="M 163.433594 0 C 73.171875 0 0 73.171875 0 163.433594 C 0 253.695312 73.171875 326.867188 163.433594 326.867188 C 253.695312 326.867188 326.867188 253.695312 326.867188 163.433594 C 326.867188 73.171875 253.695312 0 163.433594 0 Z M 163.433594 0 " clip-rule="nonzero"/></clipPath><clipPath id="45400ea207"><path d="M 0 0 L 326.867188 0 L 326.867188 326.867188 L 0 326.867188 Z M 0 0 " clip-rule="nonzero"/></clipPath><clipPath id="0114ecb971"><path d="M 163.433594 0 C 73.171875 0 0 73.171875 0 163.433594 C 0 253.695312 73.171875 326.867188 163.433594 326.867188 C 253.695312 326.867188 326.867188 253.695312 326.867188 163.433594 C 326.867188 73.171875 253.695312 0 163.433594 0 Z M 163.433594 0 " clip-rule="nonzero"/></clipPath><clipPath id="d423d9f88e"><rect x="0" width="327" y="0" height="327"/></clipPath><clipPath id="1633228bf8"><path d="M 13.433594 13.433594 L 313.433594 13.433594 L 313.433594 313.433594 L 13.433594 313.433594 Z M 13.433594 13.433594 " clip-rule="nonzero"/></clipPath><clipPath id="6653e627a5"><path d="M 163.433594 13.433594 C 80.589844 13.433594 13.433594 80.589844 13.433594 163.433594 C 13.433594 246.277344 80.589844 313.433594 163.433594 313.433594 C 246.277344 313.433594 313.433594 246.277344 313.433594 163.433594 C 313.433594 80.589844 246.277344 13.433594 163.433594 13.433594 Z M 163.433594 13.433594 " clip-rule="nonzero"/></clipPath><clipPath id="3648fca105"><path d="M 0.433594 0.433594 L 300.433594 0.433594 L 300.433594 300.433594 L 0.433594 300.433594 Z M 0.433594 0.433594 " clip-rule="nonzero"/></clipPath><clipPath id="7e60d415de"><path d="M 150.433594 0.433594 C 67.589844 0.433594 0.433594 67.589844 0.433594 150.433594 C 0.433594 233.277344 67.589844 300.433594 150.433594 300.433594 C 233.277344 300.433594 300.433594 233.277344 300.433594 150.433594 C 300.433594 67.589844 233.277344 0.433594 150.433594 0.433594 Z M 150.433594 0.433594 " clip-rule="nonzero"/></clipPath><clipPath id="b1c532e409"><rect x="0" width="301" y="0" height="301"/></clipPath><clipPath id="590c85e2d2"><path d="M 99.507812 66 L 245.757812 66 L 245.757812 253 L 99.507812 253 Z M 99.507812 66 " clip-rule="nonzero"/></clipPath></defs><g clip-path="url(#be4a13f6d9)"><g clip-path="url(#70b5489b7d)"><g transform="matrix(1, 0, 0, 1, 0, 0)"><g clip-path="url(#d423d9f88e)"><g clip-path="url(#45400ea207)"><g clip-path="url(#0114ecb971)"><path fill="#ffcc00" d="M 0 0 L 326.867188 0 L 326.867188 326.867188 L 0 326.867188 Z M 0 0 " fill-opacity="1" fill-rule="nonzero"/></g></g></g></g></g></g><g clip-path="url(#1633228bf8)"><g clip-path="url(#6653e627a5)"><g transform="matrix(1, 0, 0, 1, 13, 13)"><g clip-path="url(#b1c532e409)"><g clip-path="url(#3648fca105)"><g clip-path="url(#7e60d415de)"><path fill="#0066cc" d="M 0.433594 0.433594 L 300.433594 0.433594 L 300.433594 300.433594 L 0.433594 300.433594 Z M 0.433594 0.433594 " fill-opacity="1" fill-rule="nonzero"/></g></g></g></g></g></g><g clip-path="url(#590c85e2d2)"><path fill="#ffffff" d="M 245.949219 252.058594 L 99.507812 252.058594 L 99.507812 232.617188 L 106.039062 232.617188 C 113.203125 232.617188 118.890625 226.695312 118.890625 219.53125 L 118.753906 93.773438 C 118.753906 86.589844 112.945312 80.785156 105.765625 80.785156 L 99.625 80.785156 L 99.625 66.046875 L 184.613281 66.046875 L 184.613281 80.882812 L 177.824219 80.882812 C 170.640625 80.882812 164.777344 86.847656 164.777344 94.007812 L 164.71875 228.425781 L 207.164062 228.425781 C 212.949219 228.425781 218.222656 222.839844 217.691406 216.976562 C 217.515625 215.164062 217.335938 212.527344 217.335938 210.679688 C 217.335938 199.480469 223.832031 189.664062 233.53125 184.722656 L 243.113281 194.324219 C 238.117188 198.890625 234.96875 205.464844 234.96875 212.785156 C 234.96875 221.402344 239.335938 229.019531 245.988281 233.503906 Z M 245.949219 252.058594 " fill-opacity="1" fill-rule="nonzero"/></g></svg>